<svg width="200" height="200" viewBox="0 0 200 200" fill="none" xmlns="http://www.w3.org/2000/svg">
<path d="M188.287 192.857C182.289 174.154 170.507 157.84 154.641 146.266C138.774 134.691 119.641 128.455 100.001 128.455C80.3608 128.455 61.2281 134.691 45.3611 146.266C29.4942 157.84 17.7127 174.154 11.7152 192.857H188.287Z" stroke="white" stroke-linecap="round" stroke-linejoin="round"/>
<path d="M100 128.571C133.39 128.571 160.459 101.503 160.459 68.1135C160.459 34.7234 133.39 7.65558 100 7.65558C66.61 7.65558 39.542 34.7234 39.542 68.1135C39.542 101.503 66.61 128.571 100 128.571Z" stroke="white" stroke-linecap="round" stroke-linejoin="round"/>
<path d="M119.742 91.5057C119.742 91.5057 114.726 101.376 100.001 101.376C85.2758 101.376 80.2594 91.5057 80.2594 91.5057" stroke="white" stroke-linecap="round" stroke-linejoin="round"/>
<path d="M159.363 56.6027C159.227 56.6036 159.093 56.604 158.958 56.604C141.385 56.604 125.607 48.9156 114.805 36.719C104.004 48.9159 88.2258 56.6044 70.6522 56.6044C60.4474 56.6044 50.8479 54.0117 42.4769 49.4492C50.3418 25.1933 73.1222 7.65558 99.9989 7.65558C129.453 7.65558 153.987 28.718 159.363 56.6027Z" stroke="white" stroke-linecap="round" stroke-linejoin="round"/>
</svg>
