<svg width="168" height="168" viewBox="0 0 168 168" fill="none" xmlns="http://www.w3.org/2000/svg">
<path d="M158.161 162C153.122 146.29 143.226 132.586 129.899 122.863C116.57 113.141 100.498 107.902 84.0008 107.902C67.5031 107.902 51.4316 113.141 38.1034 122.863C24.7752 132.586 14.8787 146.29 9.84082 162H158.161Z" stroke="white" stroke-width="12" stroke-linecap="round" stroke-linejoin="round"/>
<path d="M83.9957 108C112.043 108 134.781 85.2629 134.781 57.2153C134.781 29.1677 112.043 6.43066 83.9957 6.43066C55.9481 6.43066 33.2109 29.1677 33.2109 57.2153C33.2109 85.2629 55.9481 108 83.9957 108Z" stroke="white" stroke-width="12" stroke-linecap="round" stroke-linejoin="round"/>
<path d="M100.578 76.8647C100.578 76.8647 96.3639 85.156 83.9949 85.156C71.6259 85.156 67.4121 76.8647 67.4121 76.8647" stroke="white" stroke-width="12" stroke-linecap="round" stroke-linejoin="round"/>
<path d="M133.862 47.5463C133.748 47.547 133.635 47.5474 133.522 47.5474C118.76 47.5474 105.507 41.0891 96.4335 30.844C87.3601 41.0893 74.1068 47.5477 59.345 47.5477C50.7729 47.5477 42.7094 45.3698 35.6777 41.5373C42.2842 21.1624 61.4198 6.43066 83.9962 6.43066C108.737 6.43066 129.346 24.1231 133.862 47.5463Z" stroke="white" stroke-width="12" stroke-linecap="round" stroke-linejoin="round"/>
</svg>
