<svg width="74" height="97" viewBox="0 0 74 97" fill="none" xmlns="http://www.w3.org/2000/svg">
<path d="M2.31953 91V76.4H4.11953V89.36H10.7195V91H2.31953ZM18.0117 91.16C17.1317 91.16 16.3717 90.9933 15.7317 90.66C15.0917 90.3267 14.5917 89.8467 14.2317 89.22C13.8851 88.58 13.7117 87.8267 13.7117 86.96V84.04C13.7117 83.16 13.8851 82.4067 14.2317 81.78C14.5917 81.1533 15.0917 80.6733 15.7317 80.34C16.3717 80.0067 17.1317 79.84 18.0117 79.84C18.8917 79.84 19.6517 80.0067 20.2917 80.34C20.9317 80.6733 21.4251 81.1533 21.7717 81.78C22.1317 82.4067 22.3117 83.1533 22.3117 84.02V86.96C22.3117 87.8267 22.1317 88.58 21.7717 89.22C21.4251 89.8467 20.9317 90.3267 20.2917 90.66C19.6517 90.9933 18.8917 91.16 18.0117 91.16ZM18.0117 89.56C18.7984 89.56 19.4117 89.34 19.8517 88.9C20.2917 88.46 20.5117 87.8133 20.5117 86.96V84.04C20.5117 83.1867 20.2917 82.54 19.8517 82.1C19.4117 81.66 18.7984 81.44 18.0117 81.44C17.2384 81.44 16.6251 81.66 16.1717 82.1C15.7317 82.54 15.5117 83.1867 15.5117 84.04V86.96C15.5117 87.8133 15.7317 88.46 16.1717 88.9C16.6251 89.34 17.2384 89.56 18.0117 89.56ZM27.2239 94.6V92.96H30.7239C31.2839 92.96 31.6906 92.8333 31.9439 92.58C32.2106 92.3267 32.3439 91.9333 32.3439 91.4V90L32.3839 88H32.0239L32.3639 87.7C32.3639 88.5 32.0972 89.1333 31.5639 89.6C31.0306 90.0667 30.3172 90.3 29.4239 90.3C28.2906 90.3 27.3972 89.9333 26.7439 89.2C26.0906 88.4533 25.7639 87.4533 25.7639 86.2V83.88C25.7639 82.6267 26.0906 81.6333 26.7439 80.9C27.3972 80.1667 28.2906 79.8 29.4239 79.8C30.3172 79.8 31.0306 80.0333 31.5639 80.5C32.0972 80.9667 32.3639 81.6 32.3639 82.4L32.0239 82.1H32.3639V80H34.1439V91.4C34.1439 92.3867 33.8372 93.1667 33.2239 93.74C32.6239 94.3133 31.7839 94.6 30.7039 94.6H27.2239ZM29.9639 88.74C30.7106 88.74 31.2972 88.5067 31.7239 88.04C32.1506 87.5733 32.3639 86.9267 32.3639 86.1V84C32.3639 83.1733 32.1506 82.5267 31.7239 82.06C31.2972 81.5933 30.7106 81.36 29.9639 81.36C29.2039 81.36 28.6106 81.5867 28.1839 82.04C27.7706 82.4933 27.5639 83.1467 27.5639 84V86.1C27.5639 86.9533 27.7706 87.6067 28.1839 88.06C28.6106 88.5133 29.2039 88.74 29.9639 88.74ZM37.6961 91V89.36H41.5961V81.64H38.1961V80H43.3961V89.36H47.0961V91H37.6961ZM42.2961 78.02C41.8561 78.02 41.5094 77.9067 41.2561 77.68C41.0028 77.4533 40.8761 77.1467 40.8761 76.76C40.8761 76.36 41.0028 76.0467 41.2561 75.82C41.5094 75.58 41.8561 75.46 42.2961 75.46C42.7361 75.46 43.0828 75.58 43.3361 75.82C43.5894 76.0467 43.7161 76.36 43.7161 76.76C43.7161 77.1467 43.5894 77.4533 43.3361 77.68C43.0828 77.9067 42.7361 78.02 42.2961 78.02ZM49.8283 91V80H51.6283V82.1H52.0083L51.6283 82.52C51.6283 81.6533 51.8883 80.9867 52.4083 80.52C52.9283 80.04 53.6483 79.8 54.5683 79.8C55.6749 79.8 56.5549 80.14 57.2083 80.82C57.8616 81.5 58.1883 82.4267 58.1883 83.6V91H56.3883V83.8C56.3883 83.0133 56.1749 82.4133 55.7483 82C55.3349 81.5733 54.7683 81.36 54.0483 81.36C53.3016 81.36 52.7083 81.5867 52.2683 82.04C51.8416 82.4933 51.6283 83.1467 51.6283 84V91H49.8283Z" fill="white"/>
<path d="M53 51V61C53 62.326 52.4732 63.598 51.5356 64.5355C50.5979 65.473 49.3261 66 48 66H13C11.6739 66 10.4021 65.473 9.46446 64.5355C8.52678 63.598 8 62.326 8 61V6C8 4.6739 8.52678 3.40215 9.46446 2.46446C10.4021 1.52678 11.6739 1 13 1H48C49.3261 1 50.5979 1.52678 51.5356 2.46446C52.4732 3.40215 53 4.6739 53 6V16" stroke="white" stroke-linecap="round" stroke-linejoin="round"/>
<path d="M73 33.5H33" stroke="white" stroke-linecap="round" stroke-linejoin="round"/>
<path d="M43 23.5L33 33.5L43 43.5" stroke="white" stroke-linecap="round" stroke-linejoin="round"/>
</svg>
