<svg width="80" height="97" viewBox="0 0 80 97" fill="none" xmlns="http://www.w3.org/2000/svg">
<path d="M2.32344 91V76.4H4.12344V89.36H10.7234V91H2.32344ZM18.0156 91.16C17.1356 91.16 16.3756 90.9933 15.7356 90.66C15.0956 90.3267 14.5956 89.8467 14.2356 89.22C13.889 88.58 13.7156 87.8267 13.7156 86.96V84.04C13.7156 83.16 13.889 82.4067 14.2356 81.78C14.5956 81.1533 15.0956 80.6733 15.7356 80.34C16.3756 80.0067 17.1356 79.84 18.0156 79.84C18.8956 79.84 19.6556 80.0067 20.2956 80.34C20.9356 80.6733 21.429 81.1533 21.7756 81.78C22.1356 82.4067 22.3156 83.1533 22.3156 84.02V86.96C22.3156 87.8267 22.1356 88.58 21.7756 89.22C21.429 89.8467 20.9356 90.3267 20.2956 90.66C19.6556 90.9933 18.8956 91.16 18.0156 91.16ZM18.0156 89.56C18.8023 89.56 19.4156 89.34 19.8556 88.9C20.2956 88.46 20.5156 87.8133 20.5156 86.96V84.04C20.5156 83.1867 20.2956 82.54 19.8556 82.1C19.4156 81.66 18.8023 81.44 18.0156 81.44C17.2423 81.44 16.629 81.66 16.1756 82.1C15.7356 82.54 15.5156 83.1867 15.5156 84.04V86.96C15.5156 87.8133 15.7356 88.46 16.1756 88.9C16.629 89.34 17.2423 89.56 18.0156 89.56ZM27.2278 94.6V92.96H30.7278C31.2878 92.96 31.6945 92.8333 31.9478 92.58C32.2145 92.3267 32.3478 91.9333 32.3478 91.4V90L32.3878 88H32.0278L32.3678 87.7C32.3678 88.5 32.1011 89.1333 31.5678 89.6C31.0345 90.0667 30.3211 90.3 29.4278 90.3C28.2945 90.3 27.4011 89.9333 26.7478 89.2C26.0945 88.4533 25.7678 87.4533 25.7678 86.2V83.88C25.7678 82.6267 26.0945 81.6333 26.7478 80.9C27.4011 80.1667 28.2945 79.8 29.4278 79.8C30.3211 79.8 31.0345 80.0333 31.5678 80.5C32.1011 80.9667 32.3678 81.6 32.3678 82.4L32.0278 82.1H32.3678V80H34.1478V91.4C34.1478 92.3867 33.8411 93.1667 33.2278 93.74C32.6278 94.3133 31.7878 94.6 30.7078 94.6H27.2278ZM29.9678 88.74C30.7145 88.74 31.3011 88.5067 31.7278 88.04C32.1545 87.5733 32.3678 86.9267 32.3678 86.1V84C32.3678 83.1733 32.1545 82.5267 31.7278 82.06C31.3011 81.5933 30.7145 81.36 29.9678 81.36C29.2078 81.36 28.6145 81.5867 28.1878 82.04C27.7745 82.4933 27.5678 83.1467 27.5678 84V86.1C27.5678 86.9533 27.7745 87.6067 28.1878 88.06C28.6145 88.5133 29.2078 88.74 29.9678 88.74ZM42 91.16C41.12 91.16 40.36 90.9933 39.72 90.66C39.08 90.3267 38.58 89.8467 38.22 89.22C37.8733 88.58 37.7 87.8267 37.7 86.96V84.04C37.7 83.16 37.8733 82.4067 38.22 81.78C38.58 81.1533 39.08 80.6733 39.72 80.34C40.36 80.0067 41.12 79.84 42 79.84C42.88 79.84 43.64 80.0067 44.28 80.34C44.92 80.6733 45.4133 81.1533 45.76 81.78C46.12 82.4067 46.3 83.1533 46.3 84.02V86.96C46.3 87.8267 46.12 88.58 45.76 89.22C45.4133 89.8467 44.92 90.3267 44.28 90.66C43.64 90.9933 42.88 91.16 42 91.16ZM42 89.56C42.7867 89.56 43.4 89.34 43.84 88.9C44.28 88.46 44.5 87.8133 44.5 86.96V84.04C44.5 83.1867 44.28 82.54 43.84 82.1C43.4 81.66 42.7867 81.44 42 81.44C41.2267 81.44 40.6133 81.66 40.16 82.1C39.72 82.54 39.5 83.1867 39.5 84.04V86.96C39.5 87.8133 39.72 88.46 40.16 88.9C40.6133 89.34 41.2267 89.56 42 89.56ZM53.9722 91.2C52.7055 91.2 51.6922 90.8267 50.9322 90.08C50.1722 89.32 49.7922 88.2933 49.7922 87V80H51.5922V87C51.5922 87.8267 51.8055 88.4733 52.2322 88.94C52.6589 89.3933 53.2389 89.62 53.9722 89.62C54.7189 89.62 55.3055 89.3933 55.7322 88.94C56.1722 88.4733 56.3922 87.8267 56.3922 87V80H58.1922V87C58.1922 88.2933 57.8055 89.32 57.0322 90.08C56.2589 90.8267 55.2389 91.2 53.9722 91.2ZM67.1844 91C66.2377 91 65.4977 90.7467 64.9644 90.24C64.4444 89.7333 64.1844 89.02 64.1844 88.1V81.64H61.0844V80H64.1844V76.9H65.9844V80H70.3844V81.64H65.9844V88.1C65.9844 88.94 66.3844 89.36 67.1844 89.36H70.1844V91H67.1844Z" fill="white"/>
<path d="M59 51V61C59 62.326 58.4732 63.598 57.5356 64.5355C56.5979 65.473 55.3261 66 54 66H19C17.6739 66 16.4021 65.473 15.4645 64.5355C14.5268 63.598 14 62.326 14 61V6C14 4.6739 14.5268 3.40215 15.4645 2.46446C16.4021 1.52678 17.6739 1 19 1H54C55.3261 1 56.5979 1.52678 57.5356 2.46446C58.4732 3.40215 59 4.6739 59 6V16" stroke="white" stroke-linecap="round" stroke-linejoin="round"/>
<path d="M44 33.5H79" stroke="white" stroke-linecap="round" stroke-linejoin="round"/>
<path d="M69 23.5L79 33.5L69 43.5" stroke="white" stroke-linecap="round" stroke-linejoin="round"/>
</svg>
